<svg width="231" height="50" viewBox="0 0 231 50" fill="none" xmlns="http://www.w3.org/2000/svg">
<path d="M4.2 49.944H0.424V45.656H3.24C4.86133 45.656 6.056 45.272 6.824 44.504C7.63467 43.736 8.04 42.584 8.04 41.048V5.464H2.6V1.688H18.024V5.464H13.288V40.856C13.288 43.8427 12.52 46.104 10.984 47.64C9.448 49.176 7.18667 49.944 4.2 49.944ZM36.402 39.64C33.202 39.64 30.4927 39.064 28.274 37.912C26.098 36.7173 24.4553 35.1173 23.346 33.112C22.2793 31.064 21.746 28.8027 21.746 26.328C21.746 23.8107 22.2793 21.5493 23.346 19.544C24.4553 17.5387 26.0127 15.9387 28.018 14.744C30.0233 13.5493 32.3913 12.952 35.122 12.952C37.8527 12.952 40.1993 13.5493 42.162 14.744C44.1247 15.9387 45.618 17.5387 46.642 19.544C47.7087 21.5067 48.242 23.768 48.242 26.328V28.184H24.562V24.472H43.762C43.762 23.064 43.3993 21.7627 42.674 20.568C41.9913 19.3733 40.9887 18.4133 39.666 17.688C38.386 16.92 36.8713 16.536 35.122 16.536C33.2873 16.536 31.7087 16.9413 30.386 17.752C29.0633 18.52 28.0393 19.5653 27.314 20.888C26.6313 22.168 26.29 23.5547 26.29 25.048V26.328C26.29 29.1867 27.1433 31.4693 28.85 33.176C30.5993 34.8827 33.1593 35.736 36.53 35.736C38.322 35.736 40.05 35.416 41.714 34.776C43.4207 34.136 44.8287 33.2827 45.938 32.216L47.986 35.608C46.578 36.8453 44.85 37.8267 42.802 38.552C40.754 39.2773 38.6207 39.64 36.402 39.64ZM64.574 39.64C62.014 39.64 59.9233 38.9573 58.302 37.592C56.7233 36.184 55.934 33.944 55.934 30.872V17.176H51.198V13.592H55.934V5.08L60.606 4.184V13.592H67.774V17.176H60.606V30.168C60.606 32.2587 61.054 33.688 61.95 34.456C62.846 35.224 64.0407 35.608 65.534 35.608C66.0887 35.608 66.6433 35.544 67.198 35.416C67.7527 35.288 68.2433 35.1387 68.67 34.968L69.374 38.552C68.734 38.8507 67.9873 39.1067 67.134 39.32C66.3233 39.5333 65.47 39.64 64.574 39.64ZM83.7615 39.64C81.2015 39.64 79.1108 38.9573 77.4895 37.592C75.9108 36.184 75.1215 33.944 75.1215 30.872V17.176H70.3855V13.592H75.1215V5.08L79.7935 4.184V13.592H86.9615V17.176H79.7935V30.168C79.7935 32.2587 80.2415 33.688 81.1375 34.456C82.0335 35.224 83.2282 35.608 84.7215 35.608C85.2762 35.608 85.8308 35.544 86.3855 35.416C86.9402 35.288 87.4308 35.1387 87.8575 34.968L88.5615 38.552C87.9215 38.8507 87.1748 39.1067 86.3215 39.32C85.5108 39.5333 84.6575 39.64 83.7615 39.64ZM112.101 39.64C108.048 39.64 104.506 38.8293 101.477 37.208C98.4477 35.544 96.101 33.2613 94.437 30.36C92.773 27.4587 91.941 24.152 91.941 20.44C91.941 16.6427 92.7517 13.2933 94.373 10.392C96.037 7.448 98.3197 5.144 101.221 3.48C104.165 1.816 107.536 0.983997 111.333 0.983997C115.088 0.983997 118.245 1.79466 120.805 3.416C123.408 4.99466 125.264 7.34133 126.373 10.456L124.965 9.688V1.688H128.613V13.4H125.157C123.92 10.6267 122.149 8.6 119.845 7.32C117.584 6.04 115.024 5.4 112.165 5.4C109.178 5.4 106.576 6.04 104.357 7.32C102.138 8.55733 100.41 10.3067 99.173 12.568C97.9783 14.8293 97.381 17.432 97.381 20.376C97.381 23.3627 97.9783 25.9653 99.173 28.184C100.368 30.4027 102.074 32.1307 104.293 33.368C106.512 34.6053 109.114 35.224 112.101 35.224C115.13 35.224 117.669 34.584 119.717 33.304C121.808 32.024 123.536 29.976 124.901 27.16L128.933 29.272C127.397 32.6853 125.242 35.2667 122.469 37.016C119.696 38.7653 116.24 39.64 112.101 39.64ZM134.431 39V35.224H139.167V5.464H134.431V1.688H154.207C158.388 1.688 161.524 2.60533 163.615 4.44C165.705 6.232 166.751 8.89867 166.751 12.44C166.751 16.024 165.684 18.712 163.551 20.504C161.46 22.296 158.473 23.192 154.591 23.192H153.503L157.023 21.4L165.599 35.224H170.591V39H161.759L151.967 23.192H147.423V19.352H153.247C156.191 19.352 158.26 18.7333 159.455 17.496C160.692 16.2587 161.311 14.5733 161.311 12.44C161.311 10.3067 160.713 8.62133 159.519 7.384C158.367 6.104 156.276 5.464 153.247 5.464H144.415V35.224H149.151V39H134.431ZM174.368 39V35.224H179.104V5.464H174.368V1.688H185.568L198.048 27.288H197.152L209.568 1.688H220.96V5.464H216.224V35.224H220.96V39H207.2V35.224H211.424V8.408L199.136 34.072H196.064L183.584 8.408V35.224H187.808V39H174.368ZM225.297 39V34.136H230.353V39H225.297Z" fill="white"/>
</svg>
